<svg id="e9ecc617-883f-4dfc-9a55-ce5b125f3ffd" data-name="Layer 1" xmlns="http://www.w3.org/2000/svg" xmlns:xlink="http://www.w3.org/1999/xlink" width="983.54823" height="576.15723" viewBox="0 0 983.54823 576.15723"><defs><linearGradient id="ba860033-8b14-4705-9ef7-06625c8932b0" x1="-566.54523" y1="517.53213" x2="-566.54523" y2="599.34427" gradientTransform="translate(-265.63001 868.28) rotate(180)" gradientUnits="userSpaceOnUse"><stop offset="0" stop-color="gray" stop-opacity="0.25"/><stop offset="0.54" stop-color="gray" stop-opacity="0.12"/><stop offset="1" stop-color="gray" stop-opacity="0.1"/></linearGradient></defs><circle cx="531.30481" cy="6.81334" r="6.81334" fill="#e6e6e6"/><circle cx="565.79385" cy="6.81334" r="6.81334" fill="#e6e6e6"/><circle cx="600.28289" cy="6.81334" r="6.81334" fill="#e6e6e6"/><circle cx="634.77193" cy="6.81334" r="6.81334" fill="#e6e6e6"/><circle cx="669.26097" cy="6.81334" r="6.81334" fill="#e6e6e6"/><circle cx="531.30481" cy="41.73529" r="6.81334" fill="#e6e6e6"/><circle cx="565.79385" cy="41.73529" r="6.81334" fill="#e6e6e6"/><circle cx="600.28289" cy="41.73529" r="6.81334" fill="#e6e6e6"/><circle cx="634.77193" cy="41.73529" r="6.81334" fill="#f9a826"/><circle cx="669.26097" cy="41.73529" r="6.81334" fill="#e6e6e6"/><circle cx="738.23905" cy="41.73529" r="6.81334" fill="#e6e6e6"/><circle cx="531.30481" cy="76.65724" r="6.81334" fill="#e6e6e6"/><circle cx="565.79385" cy="76.65724" r="6.81334" fill="#e6e6e6"/><circle cx="600.28289" cy="76.65724" r="6.81334" fill="#e6e6e6"/><circle cx="634.77193" cy="76.65724" r="6.81334" fill="#e6e6e6"/><circle cx="669.26097" cy="76.65724" r="6.81334" fill="#e6e6e6"/><circle cx="531.30481" cy="111.57918" r="6.81334" fill="#e6e6e6"/><circle cx="565.79385" cy="111.57918" r="6.81334" fill="#e6e6e6"/><circle cx="600.28289" cy="111.57918" r="6.81334" fill="#e6e6e6"/><circle cx="634.77193" cy="111.57918" r="6.81334" fill="#e6e6e6"/><circle cx="669.26097" cy="111.57918" r="6.81334" fill="#e6e6e6"/><circle cx="703.75" cy="111.57918" r="6.81334" fill="#e6e6e6"/><circle cx="738.23905" cy="111.57918" r="6.81334" fill="#e6e6e6"/><circle cx="772.72809" cy="111.57918" r="6.81334" fill="#e6e6e6"/><circle cx="807.21714" cy="111.57918" r="6.81335" fill="#e6e6e6"/><circle cx="841.70618" cy="111.57918" r="6.81335" fill="#e6e6e6"/><circle cx="669.26097" cy="146.50113" r="6.81334" fill="#e6e6e6"/><circle cx="703.75" cy="146.50113" r="6.81334" fill="#f9a826"/><circle cx="738.23905" cy="146.50113" r="6.81334" fill="#e6e6e6"/><circle cx="772.72809" cy="146.50113" r="6.81334" fill="#e6e6e6"/><circle cx="807.21714" cy="146.50113" r="6.81335" fill="#e6e6e6"/><circle cx="841.70618" cy="146.50113" r="6.81335" fill="#e6e6e6"/><circle cx="669.26097" cy="181.42308" r="6.81334" fill="#e6e6e6"/><circle cx="703.75" cy="181.42308" r="6.81334" fill="#e6e6e6"/><circle cx="738.23905" cy="181.42308" r="6.81334" fill="#e6e6e6"/><circle cx="772.72809" cy="181.42308" r="6.81334" fill="#e6e6e6"/><circle cx="807.21714" cy="181.42308" r="6.81335" fill="#f9a826"/><circle cx="841.70618" cy="181.42308" r="6.81335" fill="#e6e6e6"/><circle cx="669.26097" cy="216.34503" r="6.81334" fill="#e6e6e6"/><circle cx="703.75" cy="216.34503" r="6.81334" fill="#e6e6e6"/><circle cx="738.23905" cy="216.34503" r="6.81334" fill="#e6e6e6"/><circle cx="772.72809" cy="216.34503" r="6.81334" fill="#e6e6e6"/><circle cx="807.21714" cy="216.34503" r="6.81335" fill="#e6e6e6"/><circle cx="841.70618" cy="216.34503" r="6.81335" fill="#e6e6e6"/><circle cx="531.30481" cy="251.26698" r="6.81334" fill="#e6e6e6"/><circle cx="565.79385" cy="251.26698" r="6.81334" fill="#e6e6e6"/><circle cx="600.28289" cy="251.26698" r="6.81334" fill="#e6e6e6"/><circle cx="634.77193" cy="251.26698" r="6.81334" fill="#e6e6e6"/><circle cx="669.26097" cy="251.26698" r="6.81334" fill="#e6e6e6"/><circle cx="703.75" cy="251.26698" r="6.81334" fill="#e6e6e6"/><circle cx="738.23905" cy="251.26698" r="6.81334" fill="#e6e6e6"/><circle cx="772.72809" cy="251.26698" r="6.81334" fill="#e6e6e6"/><circle cx="807.21714" cy="251.26698" r="6.81335" fill="#e6e6e6"/><circle cx="841.70618" cy="251.26698" r="6.81335" fill="#e6e6e6"/><circle cx="639.5307" cy="448.11032" r="6.81335" transform="matrix(0.00406, -0.99999, 0.99999, 0.00406, 80.59854, 923.89281)" fill="#e6e6e6"/><circle cx="565.79385" cy="286.18894" r="6.81335" fill="#e6e6e6"/><circle cx="639.5307" cy="483.03225" r="6.81335" transform="matrix(0.00406, -0.99999, 0.99999, 0.00406, 45.67689, 958.67279)" fill="#e6e6e6"/><circle cx="565.79385" cy="321.11087" r="6.81335" fill="#e6e6e6"/><circle cx="634.77193" cy="321.11087" r="6.81335" fill="#e6e6e6"/><path d="M1086.77411,242.3053H816.77363a5.00588,5.00588,0,0,1-5-5V170.32972a5.00588,5.00588,0,0,1,5-5h270.00048a5.00588,5.00588,0,0,1,5,5V237.3053A5.00588,5.00588,0,0,1,1086.77411,242.3053ZM816.77363,167.32972a3.00328,3.00328,0,0,0-3,3V237.3053a3.00328,3.00328,0,0,0,3,3h270.00048a3.00328,3.00328,0,0,0,3-3V170.32972a3.00328,3.00328,0,0,0-3-3Z" transform="translate(-108.22589 -161.92138)" fill="#e6e6e6"/><circle cx="743.54774" cy="41.89587" r="21" fill="#f9a826"/><path d="M900.27363,189.81725a3.5,3.5,0,0,0,0,7h93a3.5,3.5,0,0,0,0-7Z" transform="translate(-108.22589 -161.92138)" fill="#e6e6e6"/><path d="M900.27363,210.81725a3.5,3.5,0,0,0,0,7h165a3.5,3.5,0,0,0,0-7Z" transform="translate(-108.22589 -161.92138)" fill="#e6e6e6"/><path d="M739.77411,378.3053H469.77363a5.00588,5.00588,0,0,1-5-5V306.32972a5.00588,5.00588,0,0,1,5-5H739.77411a5.00588,5.00588,0,0,1,5,5V373.3053A5.00588,5.00588,0,0,1,739.77411,378.3053ZM469.77363,303.32972a3.00328,3.00328,0,0,0-3,3V373.3053a3.00328,3.00328,0,0,0,3,3H739.77411a3.00328,3.00328,0,0,0,3-3V306.32972a3.00328,3.00328,0,0,0-3-3Z" transform="translate(-108.22589 -161.92138)" fill="#3f3d56"/><circle cx="396.54774" cy="177.89587" r="21" fill="#f9a826"/><path d="M553.27363,325.81725a3.5,3.5,0,0,0,0,7h97a3.5,3.5,0,0,0,0-7Z" transform="translate(-108.22589 -161.92138)" fill="#e6e6e6"/><path d="M553.27363,346.81725a3.5,3.5,0,0,0,0,7h165a3.5,3.5,0,0,0,0-7Z" transform="translate(-108.22589 -161.92138)" fill="#e6e6e6"/><path d="M983.77411,525.3053H713.77363a5.00588,5.00588,0,0,1-5-5V453.32972a5.00588,5.00588,0,0,1,5-5H983.77411a5.00588,5.00588,0,0,1,5,5V520.3053A5.00588,5.00588,0,0,1,983.77411,525.3053ZM713.77363,450.32972a3.00328,3.00328,0,0,0-3,3V520.3053a3.00328,3.00328,0,0,0,3,3H983.77411a3.00328,3.00328,0,0,0,3-3V453.32972a3.00328,3.00328,0,0,0-3-3Z" transform="translate(-108.22589 -161.92138)" fill="#e6e6e6"/><circle cx="640.54774" cy="324.89587" r="21" fill="#f9a826"/><path d="M797.27363,472.81725a3.5,3.5,0,0,0,0,7h89a3.5,3.5,0,0,0,0-7Z" transform="translate(-108.22589 -161.92138)" fill="#e6e6e6"/><path d="M797.27363,493.81725a3.5,3.5,0,0,0,0,7h165a3.5,3.5,0,0,0,0-7Z" transform="translate(-108.22589 -161.92138)" fill="#e6e6e6"/></svg>