<?xml version="1.0" encoding="utf-8"?>
<svg width="267px" height="273px" viewBox="0 0 267 273" version="1.1" xmlns="http://www.w3.org/1999/xlink" xmlns="http://www.w3.org/2000/svg">
  <desc>Created with Lunacy</desc>
  <g id="Contact-us" fill="#FFFFFF" transform="translate(55.5 116.5)">
    <path d="M20.4609 35.5488Q17.666 37.0254 13.5 37.0254Q8.12109 37.0254 4.88672 33.5625Q1.65234 30.0996 1.65234 24.4746Q1.65234 18.4277 5.29102 14.7012Q8.92969 10.9746 14.5195 10.9746Q18.1055 10.9746 20.4609 12.0117L20.4609 15.1582Q17.7539 13.6465 14.4844 13.6465Q10.1426 13.6465 7.44434 16.5469Q4.74609 19.4473 4.74609 24.2988Q4.74609 28.9043 7.26855 31.6377Q9.79102 34.3711 13.8867 34.3711Q17.6836 34.3711 20.4609 32.6836L20.4609 35.5488ZM75.0234 36.4277Q74.0039 36.9902 72.334 36.9902Q67.6055 36.9902 67.6055 31.7168L67.6055 21.0645L64.5117 21.0645L64.5117 18.6035L67.6055 18.6035L67.6055 14.209L70.4883 13.2773L70.4883 18.6035L75.0234 18.6035L75.0234 21.0645L70.4883 21.0645L70.4883 31.207Q70.4883 33.0176 71.1035 33.791Q71.7188 34.5645 73.1426 34.5645Q74.2324 34.5645 75.0234 33.9668L75.0234 36.4277ZM119.479 36.9902Q121.148 36.9902 122.168 36.4277L122.168 33.9668Q121.377 34.5645 120.287 34.5645Q118.863 34.5645 118.248 33.791Q117.633 33.0176 117.633 31.207L117.633 21.0645L122.168 21.0645L122.168 18.6035L117.633 18.6035L117.633 13.2773L114.75 14.209L114.75 18.6035L111.656 18.6035L111.656 21.0645L114.75 21.0645L114.75 31.7168Q114.75 36.9902 119.479 36.9902ZM32.7305 37.0254Q28.7402 37.0254 26.3584 34.5029Q23.9766 31.9805 23.9766 27.8145Q23.9766 23.2793 26.4551 20.7305Q28.9336 18.1816 33.1523 18.1816Q37.1777 18.1816 39.4365 20.6602Q41.6953 23.1387 41.6953 27.5332Q41.6953 31.8398 39.2607 34.4326Q36.8262 37.0254 32.7305 37.0254ZM58.3594 36.6035L61.2422 36.6035L61.2422 25.5996Q61.2422 21.9961 59.6777 20.0889Q58.1133 18.1816 55.1602 18.1816Q51.293 18.1816 49.2539 21.5918L49.1836 21.5918L49.1836 18.6035L46.3008 18.6035L46.3008 36.6035L49.1836 36.6035L49.1836 26.3379Q49.1836 23.8594 50.5986 22.2334Q52.0137 20.6074 54.1758 20.6074Q58.3594 20.6074 58.3594 26.3379L58.3594 36.6035ZM88.875 36.6035L91.7578 36.6035L91.7578 24.8965Q91.7578 18.1816 85.4121 18.1816Q81.9492 18.1816 79.2949 19.8691L79.2949 22.8223Q81.9141 20.6074 85.166 20.6074Q88.875 20.6074 88.875 25.1953L83.4785 25.9512Q77.5371 26.7773 77.5371 31.8223Q77.5371 34.1777 79.0576 35.6016Q80.5781 37.0254 83.2676 37.0254Q86.9238 37.0254 88.8047 33.791L88.875 33.791L88.875 36.6035ZM109.459 35.7773Q107.385 37.0254 104.537 37.0254Q100.688 37.0254 98.3232 34.5205Q95.959 32.0156 95.959 28.0254Q95.959 23.5781 98.5078 20.8799Q101.057 18.1816 105.311 18.1816Q107.684 18.1816 109.494 19.0605L109.494 22.0137Q107.49 20.6074 105.205 20.6074Q102.445 20.6074 100.679 22.585Q98.9121 24.5625 98.9121 27.7793Q98.9121 30.9434 100.573 32.7715Q102.234 34.5996 105.029 34.5996Q107.385 34.5996 109.459 33.0352L109.459 35.7773ZM155.162 32.8594L155.162 35.9531Q157.201 37.0254 159.979 37.0254Q161.385 37.0254 162.668 36.709Q163.951 36.3926 164.936 35.7422Q165.92 35.0918 166.509 34.1074Q167.098 33.123 167.098 31.7871Q167.098 30.6973 166.737 29.9063Q166.377 29.1152 165.709 28.5088Q165.041 27.9023 164.092 27.4189Q163.143 26.9355 161.947 26.4785Q161.051 26.127 160.348 25.8281Q159.645 25.5293 159.152 25.1602Q158.66 24.791 158.405 24.3164Q158.15 23.8418 158.15 23.1387Q158.15 22.5762 158.405 22.1104Q158.66 21.6445 159.126 21.3105Q159.592 20.9766 160.242 20.792Q160.893 20.6074 161.701 20.6074Q164.285 20.6074 166.271 21.9082L166.271 18.9902Q164.426 18.1816 162.088 18.1816Q160.77 18.1816 159.53 18.5156Q158.291 18.8496 157.324 19.5088Q156.357 20.168 155.777 21.1436Q155.197 22.1191 155.197 23.3848Q155.197 24.4219 155.505 25.1953Q155.813 25.9688 156.419 26.5752Q157.025 27.1816 157.931 27.665Q158.836 28.1484 160.031 28.623Q160.893 28.957 161.64 29.2646Q162.387 29.5723 162.94 29.959Q163.494 30.3457 163.819 30.8467Q164.145 31.3477 164.145 32.0684Q164.145 34.5996 160.348 34.5996Q157.518 34.5996 155.162 32.8594ZM150.434 36.6035L147.551 36.6035L147.551 33.7559L147.48 33.7559Q145.688 37.0254 141.926 37.0254Q135.492 37.0254 135.492 29.3613L135.492 18.6035L138.357 18.6035L138.357 28.9043Q138.357 34.5996 142.717 34.5996Q144.826 34.5996 146.188 33.0439Q147.551 31.4883 147.551 28.9746L147.551 18.6035L150.434 18.6035L150.434 36.6035ZM32.9414 20.6074Q30.1641 20.6074 28.5469 22.4971Q26.9297 24.3867 26.9297 27.709Q26.9297 30.9082 28.5645 32.7539Q30.1992 34.5996 32.9414 34.5996Q35.7363 34.5996 37.2393 32.7891Q38.7422 30.9785 38.7422 27.6387Q38.7422 24.2637 37.2393 22.4355Q35.7363 20.6074 32.9414 20.6074ZM84.5332 28.0957L88.875 27.498L88.875 29.291Q88.875 31.5938 87.4775 33.0967Q86.0801 34.5996 83.9355 34.5996Q82.3711 34.5996 81.4307 33.7646Q80.4902 32.9297 80.4902 31.6113Q80.4902 29.8008 81.5098 29.0889Q82.5293 28.377 84.5332 28.0957Z" />
  </g>
  <path d="M0 134C0 59.9938 58.6507 0 131 0C203.349 0 262 59.9938 262 134C262 208.006 203.349 268 131 268C58.6507 268 0 208.006 0 134Z" transform="translate(2.5 2.5)" id="Ellipse-3" fill="#2D125A" fill-opacity="1" stroke="#FE00E9" stroke-opacity="0.5" stroke-width="5" />
</svg>